<svg width="306" height="226" viewBox="0 0 306 226" fill="none" xmlns="http://www.w3.org/2000/svg">
<g opacity="0.08">
<rect opacity="0.1" y="225.598" width="48.4372" height="48.4372" rx="24.2186" transform="rotate(-90 0 225.598)" fill="white"/>
<rect opacity="0.1" x="55.7358" y="225.598" width="48.4372" height="48.4372" rx="24.2186" transform="rotate(-90 55.7358 225.598)" fill="white"/>
<rect opacity="0.05" x="111.472" y="225.598" width="48.4372" height="48.4372" rx="24.2186" transform="rotate(-90 111.472 225.598)" fill="white"/>
<rect opacity="0.05" x="167.208" y="225.598" width="48.4372" height="48.4372" rx="24.2186" transform="rotate(-90 167.208 225.598)" fill="white"/>
<rect opacity="0.3" x="222.944" y="225.598" width="48.4372" height="48.4372" rx="24.2186" transform="rotate(-90 222.944 225.598)" fill="white"/>
<rect opacity="0.2" x="278.68" y="225.598" width="48.4372" height="48.4372" rx="24.2186" transform="rotate(-90 278.68 225.598)" fill="white"/>
<rect opacity="0.03" y="166.545" width="48.4372" height="48.4372" rx="24.2186" transform="rotate(-90 0 166.545)" fill="white"/>
<rect opacity="0.03" x="55.7358" y="166.545" width="48.4372" height="48.4372" rx="24.2186" transform="rotate(-90 55.7358 166.545)" fill="white"/>
<rect opacity="0.15" x="111.472" y="166.545" width="48.4372" height="48.4372" rx="24.2186" transform="rotate(-90 111.472 166.545)" fill="white"/>
<rect opacity="0.4" x="167.208" y="166.545" width="48.4372" height="48.4372" rx="24.2186" transform="rotate(-90 167.208 166.545)" fill="white"/>
<rect opacity="0.67" x="222.944" y="166.545" width="48.4372" height="48.4372" rx="24.2186" transform="rotate(-90 222.944 166.545)" fill="white"/>
<rect opacity="0.2" x="278.68" y="166.545" width="48.4372" height="48.4372" rx="24.2186" transform="rotate(-90 278.68 166.545)" fill="white"/>
<rect opacity="0.1" y="107.491" width="48.4372" height="48.4372" rx="24.2186" transform="rotate(-90 0 107.491)" fill="white"/>
<rect opacity="0.1" x="55.7358" y="107.491" width="48.4372" height="48.4372" rx="24.2186" transform="rotate(-90 55.7358 107.491)" fill="white"/>
<rect opacity="0.1" x="111.472" y="107.491" width="48.4372" height="48.4372" rx="24.2186" transform="rotate(-90 111.472 107.491)" fill="white"/>
<rect opacity="0.7" x="167.208" y="107.491" width="48.4372" height="48.4372" rx="24.2186" transform="rotate(-90 167.208 107.491)" fill="white"/>
<rect opacity="0.9" x="222.944" y="107.491" width="48.4372" height="48.4372" rx="24.2186" transform="rotate(-90 222.944 107.491)" fill="white"/>
<rect opacity="0.1" x="278.68" y="107.491" width="48.4372" height="48.4372" rx="24.2186" transform="rotate(-90 278.68 107.491)" fill="white"/>
<rect opacity="0.04" y="48.4373" width="48.4372" height="48.4372" rx="24.2186" transform="rotate(-90 0 48.4373)" fill="white"/>
<rect opacity="0.04" x="55.7358" y="48.4373" width="48.4372" height="48.4372" rx="24.2186" transform="rotate(-90 55.7358 48.4373)" fill="white"/>
<rect opacity="0.04" x="111.472" y="48.4373" width="48.4372" height="48.4372" rx="24.2186" transform="rotate(-90 111.472 48.4373)" fill="white"/>
<rect opacity="0.04" x="167.208" y="48.4373" width="48.4372" height="48.4372" rx="24.2186" transform="rotate(-90 167.208 48.4373)" fill="white"/>
<rect opacity="0.2" x="222.944" y="48.4373" width="48.4372" height="48.4372" rx="24.2186" transform="rotate(-90 222.944 48.4373)" fill="white"/>
<rect opacity="0.3" x="278.68" y="48.4373" width="48.4372" height="48.4372" rx="24.2186" transform="rotate(-90 278.68 48.4373)" fill="white"/>
</g>
</svg>
