<svg width="21" height="21" viewBox="0 0 21 21" fill="none" xmlns="http://www.w3.org/2000/svg">
<path d="M11.1399 10.6101C15.7599 9.8001 19.1799 7.2701 18.7699 4.9601C18.3599 2.6501 14.2799 1.44011 9.65986 2.25011C5.03986 3.06011 1.61992 5.59011 2.02992 7.90011C2.43992 10.2101 6.5099 11.4201 11.1399 10.6101Z" stroke="white" stroke-width="2" stroke-miterlimit="10" stroke-linecap="round"/>
<path d="M3.21965 9.60989C3.06965 10.7299 3.81966 11.9099 5.10966 12.8899C6.80966 14.0699 8.74965 14.8499 10.7897 15.1699C14.3497 15.7899 17.5797 15.2199 19.0697 13.8799C19.4997 13.5199 19.7897 13.0199 19.8997 12.4699C20.1397 11.0399 18.9397 9.5299 16.8797 8.3999" stroke="white" stroke-width="2" stroke-miterlimit="10" stroke-linecap="round"/>
<path d="M19.14 13.8702C19.4 14.1102 19.6099 14.4002 19.7599 14.7302C19.9099 15.0502 19.9899 15.4102 19.9999 15.7602C19.9999 18.1002 16.2099 20.0002 11.4699 20.0002C6.72991 20.0002 2.93994 18.1102 2.93994 15.7602C2.93994 14.6702 3.75992 13.6802 5.10992 12.9302" stroke="white" stroke-width="1.5" stroke-miterlimit="10" stroke-linecap="round"/>
</svg>
