<svg width="147" height="144" viewBox="0 0 147 144" fill="none" xmlns="http://www.w3.org/2000/svg">
<path d="M1.70227 54.1928C14.366 45.8166 30.3408 44.8014 44.755 48.6944C52.6111 50.8178 60.0831 54.2374 67.1604 58.214C71.3578 60.5721 80.5574 64.3687 79.5764 70.5489C78.7401 75.8229 70.9642 78.4152 66.3923 77.8897C61.0341 77.2762 56.2497 72.4598 57.0773 66.8521C57.908 61.2329 63.2713 57.6137 68.5781 56.9309C75.8632 55.9866 83.7969 58.7138 90.6037 60.9979C108.422 66.9811 124.686 76.6102 140.759 86.1756C141.997 86.9125 142.173 88.9599 140.769 89.6638C136.015 92.041 131.116 93.2626 125.815 93.6033C125.826 92.3483 125.826 91.0903 125.837 89.8353C129.519 90.0612 134.81 90.3069 138.14 88.4622C140.949 86.9078 139.459 85.4162 138.156 83.2937C137.007 81.4211 135.847 79.5455 134.698 77.6729C133.317 75.4312 136.891 73.3577 138.241 75.6276C140.115 78.756 142.629 81.9887 143.982 85.3701C144.684 87.123 144.719 88.6419 143.442 90.0855C141.744 92.0051 138.19 92.5563 135.811 93.0296C132.508 93.6785 129.171 93.8337 125.815 93.6033C123.391 93.4446 123.4 89.9741 125.837 89.8353C130.451 89.5621 134.663 88.2916 138.758 86.1794C138.76 87.3397 138.762 88.5 138.768 89.6675C126.126 82.0217 113.419 74.346 99.8351 68.4541C92.6327 65.3338 85.114 62.638 77.4376 60.9432C73.335 60.0403 68.6034 59.3554 64.7222 61.4511C60.6915 63.6233 58.4269 68.5023 61.7678 72.2938C64.9309 75.8781 70.2424 75.3378 73.9088 72.8532C80.062 68.6908 71.1314 64.3711 67.9758 62.4763C61.4341 58.5389 54.5887 55.0479 47.327 52.6297C32.6048 47.7337 16.1898 47.4835 2.72185 55.9755C1.60422 56.6885 0.600282 54.9161 1.70227 54.1928Z" fill="white"/>
</svg>
