<svg width="531" height="65" viewBox="0 0 531 65" fill="none" xmlns="http://www.w3.org/2000/svg">
<rect y="33" width="5" height="32" rx="2.5" fill="white"/>
<rect x="25" y="22" width="5" height="43" rx="2.5" fill="white"/>
<rect x="50" y="38" width="5" height="27" rx="2.5" fill="white"/>
<rect x="75" y="13" width="5" height="52" rx="2.5" fill="white"/>
<rect x="100" y="33" width="5" height="32" rx="2.5" fill="white"/>
<rect x="125" y="38" width="5" height="27" rx="2.5" fill="white"/>
<rect x="150" width="6" height="65" rx="3" fill="white"/>
<rect x="176" y="33" width="5" height="32" rx="2.5" fill="white"/>
<rect x="201" y="22" width="5" height="43" rx="2.5" fill="white"/>
<rect x="226" y="38" width="5" height="27" rx="2.5" fill="white"/>
<rect x="251" y="13" width="5" height="52" rx="2.5" fill="white"/>
<rect x="276" y="33" width="5" height="32" rx="2.5" fill="white"/>
<rect x="306" y="65" width="5" height="27" rx="2.5" transform="rotate(180 306 65)" fill="white"/>
<rect x="326" y="51" width="5" height="14" rx="2.5" fill="white"/>
<rect x="351" y="13" width="5" height="52" rx="2.5" fill="white"/>
<rect x="376" y="38" width="5" height="27" rx="2.5" fill="white"/>
<rect x="401" y="33" width="5" height="32" rx="2.5" fill="white"/>
<rect x="426" y="38" width="5" height="27" rx="2.5" fill="white"/>
<rect x="451" y="13" width="5" height="52" rx="2.5" fill="white"/>
<rect x="481" y="65" width="5" height="32" rx="2.5" transform="rotate(180 481 65)" fill="white"/>
<rect x="506" y="65" width="5" height="52" rx="2.5" transform="rotate(180 506 65)" fill="white"/>
<rect x="531" y="65" width="5" height="27" rx="2.5" transform="rotate(180 531 65)" fill="white"/>
</svg>
