<svg width="40" height="40" viewBox="0 0 40 40" fill="none" xmlns="http://www.w3.org/2000/svg">
<g clip-path="url(#clip0_1165_187)">
<path d="M19.9669 30.8333C26.0002 30.8333 30.8669 25.9833 30.8669 20C30.8669 14.0166 26.0002 9.16663 19.9669 9.16663C13.9335 9.16663 9.06689 14.0166 9.06689 20C9.06689 25.9833 13.9335 30.8333 19.9669 30.8333Z" stroke="white" stroke-width="2" stroke-miterlimit="10" stroke-linecap="round"/>
<path d="M9.31688 22.2834C6.16688 25.1667 4.41679 27.7 5.16679 28.9334C5.91679 30.1667 8.9502 29.8501 13.0502 28.3334C16.2669 27.1001 19.3835 25.5667 22.3169 23.7501C25.2835 22.0001 28.0835 19.9667 30.6502 17.6834C33.8835 14.8 35.5669 12.2667 34.8169 11.0334C34.0669 9.80006 31.0168 10.1167 26.9335 11.6501" stroke="white" stroke-width="2" stroke-miterlimit="10" stroke-linecap="round"/>
</g>
<path opacity="0.24" d="M22.9664 33.8332C28.9997 33.8332 33.8664 28.9832 33.8664 22.9998C33.8664 17.0165 28.9997 12.1665 22.9664 12.1665C16.933 12.1665 12.0664 17.0165 12.0664 22.9998C12.0664 28.9832 16.933 33.8332 22.9664 33.8332Z" fill="white" stroke="white" stroke-width="2" stroke-miterlimit="10" stroke-linecap="round"/>
<defs>
<clipPath id="clip0_1165_187">
<rect width="40" height="40" fill="white"/>
</clipPath>
</defs>
</svg>
