<svg width="40" height="40" viewBox="0 0 40 40" fill="none" xmlns="http://www.w3.org/2000/svg">
<g clip-path="url(#clip0_1165_190)">
<path d="M21.5167 5.98335L24.8333 13.0167C25.0833 13.5334 25.55 13.9 26.1167 13.9834L33.55 15.1167C34.9334 15.3334 35.5 17.1167 34.4833 18.1334L29.1 23.6167C28.7 24.0167 28.5167 24.6167 28.6167 25.1833L29.8833 32.9167C30.1167 34.3667 28.6667 35.4667 27.4167 34.7834L20.7667 31.1333C20.2667 30.8667 19.6834 30.8667 19.1834 31.1333L12.5333 34.7834C11.2833 35.4667 9.83336 34.3667 10.0667 32.9167L11.3333 25.1833C11.4333 24.6167 11.25 24.0167 10.85 23.6167L5.46667 18.1334C4.46667 17.1167 5.01667 15.3167 6.4 15.1167L13.8333 13.9834C14.3833 13.9 14.8667 13.5334 15.1167 13.0167L18.4333 5.98335C19.05 4.66668 20.85 4.66668 21.4667 5.98335H21.5167Z" stroke="white" stroke-width="2" stroke-linecap="round" stroke-linejoin="round"/>
</g>
<path opacity="0.24" d="M24.5142 8.98311L27.8309 16.0164C28.0809 16.5331 28.5476 16.8998 29.1143 16.9831L36.5476 18.1165C37.9309 18.3331 38.4976 20.1165 37.4809 21.1331L32.0976 26.6165C31.6976 27.0165 31.5143 27.6164 31.6143 28.1831L32.8809 35.9164C33.1142 37.3664 31.6643 38.4664 30.4143 37.7831L23.7642 34.1331C23.2642 33.8664 22.6809 33.8664 22.1809 34.1331L15.5309 37.7831C14.2809 38.4664 12.8309 37.3664 13.0642 35.9164L14.3309 28.1831C14.4309 27.6164 14.2476 27.0165 13.8476 26.6165L8.46423 21.1331C7.46423 20.1165 8.01423 18.3165 9.39756 18.1165L16.8309 16.9831C17.3809 16.8998 17.8642 16.5331 18.1142 16.0164L21.4309 8.98311C22.0476 7.66644 23.8476 7.66644 24.4642 8.98311H24.5142Z" fill="white" stroke="white" stroke-width="2" stroke-linecap="round" stroke-linejoin="round"/>
<defs>
<clipPath id="clip0_1165_190">
<rect width="40" height="40" fill="white"/>
</clipPath>
</defs>
</svg>
