<svg width="40" height="40" viewBox="0 0 40 40" fill="none" xmlns="http://www.w3.org/2000/svg">
<g clip-path="url(#clip0_1165_185)">
<path d="M26.4334 7.33336L21.8667 15.7834C21.4167 16.65 21.8168 17.7 22.7168 18.0167L28.9668 20.2C29.9834 20.5667 30.3334 21.8834 29.6168 22.7167L19.2168 34.7167C18.6501 35.3834 17.6168 34.8667 17.7168 34.0334L18.8668 25.7834C18.9668 25.0334 18.5501 24.35 17.8668 24.1L11.0168 21.5834C10.1501 21.2834 9.7501 20.2501 10.1668 19.4001L16.8667 5.88337C17.1167 5.36671 17.6334 5.01672 18.2167 5.01672H25.0501C26.2501 5.05006 26.9662 6.33183 26.4162 7.36517L26.4334 7.33336Z" stroke="white" stroke-width="2" stroke-miterlimit="10" stroke-linecap="round"/>
</g>
<path opacity="0.24" d="M29.4324 10.3332L24.8658 18.7833C24.4158 19.6499 24.8158 20.6999 25.7158 21.0166L31.9658 23.1999C32.9825 23.5666 33.3325 24.8833 32.6158 25.7166L22.2158 37.7166C21.6491 38.3832 20.6158 37.8666 20.7158 37.0333L21.8658 28.7833C21.9658 28.0333 21.5491 27.3499 20.8658 27.0999L14.0158 24.5833C13.1491 24.2833 12.7491 23.2499 13.1658 22.3999L19.8658 8.88325C20.1158 8.36658 20.6324 8.0166 21.2158 8.0166H28.0491C29.2491 8.04993 29.9653 9.33171 29.4153 10.365L29.4324 10.3332Z" fill="white" stroke="white" stroke-width="2" stroke-miterlimit="10" stroke-linecap="round"/>
<defs>
<clipPath id="clip0_1165_185">
<rect width="40" height="40" fill="white"/>
</clipPath>
</defs>
</svg>
